<?xml version="1.0" encoding="utf-8"?>
<!-- Generator: Adobe Illustrator 18.1.1, SVG Export Plug-In . SVG Version: 6.00 Build 0)  -->
<svg version="1.1" id="Layer_1" xmlns:sketch="http://www.bohemiancoding.com/sketch/ns"
	 xmlns="http://www.w3.org/2000/svg" xmlns:xlink="http://www.w3.org/1999/xlink" x="0px" y="0px" viewBox="0 0 1000 1000"
	 enable-background="new 0 0 1000 1000" xml:space="preserve">
<title></title>
<desc>Created with Sketch.</desc>
<g enable-background="new    ">
	<path fill="#BBBBBB" d="M949.1,166.1v667.9c0,31.6-11.3,58.7-33.9,81.3c-22.6,22.6-49.7,33.9-81.3,33.9H166.1
		c-31.6,0-58.7-11.3-81.3-33.9c-22.6-22.6-33.9-49.7-33.9-81.3V166.1c0-31.6,11.3-58.7,33.9-81.3c22.6-22.6,49.7-33.9,81.3-33.9
		h667.9c31.6,0,58.7,11.3,81.3,33.9S949.1,134.5,949.1,166.1z M847.4,810V431h-79c7.8,24.6,11.7,50.1,11.7,76.6
		c0,49.1-12.5,94.5-37.4,136c-25,41.5-58.9,74.4-101.8,98.5s-89.7,36.2-140.3,36.2c-76.8,0-142.5-26.4-197.1-79.2
		c-54.6-52.8-81.9-116.7-81.9-191.5c0-26.5,3.9-52,11.7-76.6h-82.5v379c0,10.1,3.4,18.6,10.2,25.4c6.8,6.8,15.3,10.2,25.4,10.2
		h625.2c9.7,0,18.1-3.4,25.1-10.2C843.9,828.6,847.4,820.1,847.4,810z M628.4,621.9c35.3-34.1,52.9-75.3,52.9-123.7
		s-17.7-89.6-52.9-123.7c-35.3-34.1-77.9-51.2-127.8-51.2c-49.5,0-91.9,17.1-127.2,51.2c-35.3,34.1-52.9,75.4-52.9,123.7
		s17.6,89.6,52.9,123.7c35.3,34.1,77.7,51.2,127.2,51.2C550.5,673.1,593.1,656.1,628.4,621.9z M847.4,287.7v-96.5
		c0-10.9-3.9-20.4-11.7-28.4c-7.8-8-17.3-12-28.7-12H705.3c-11.3,0-20.9,4-28.7,12c-7.8,8-11.7,17.5-11.7,28.4v96.5
		c0,11.3,3.9,20.9,11.7,28.7s17.4,11.7,28.7,11.7H807c11.3,0,20.9-3.9,28.7-11.7S847.4,299,847.4,287.7z"/>
</g>
</svg>
