<?xml version="1.0" encoding="utf-8"?>
<!-- Generator: Adobe Illustrator 18.1.1, SVG Export Plug-In . SVG Version: 6.00 Build 0)  -->
<svg version="1.1" id="Layer_1" xmlns:sketch="http://www.bohemiancoding.com/sketch/ns"
	 xmlns="http://www.w3.org/2000/svg" xmlns:xlink="http://www.w3.org/1999/xlink" x="0px" y="0px" viewBox="0 0 1000 1000"
	 enable-background="new 0 0 1000 1000" xml:space="preserve">
<title></title>
<desc>Created with Sketch.</desc>
<g enable-background="new    ">
	<path fill="#BBBBBB" d="M958.3,221.7c0,26.9-8.4,52.7-25.1,77.2c-16.7,24.6-37.5,45.5-62.4,62.9c-128.2,89-208,144.4-239.4,166.2
		c-3.4,2.4-10.7,7.6-21.7,15.6c-11.1,8-20.3,14.5-27.6,19.4c-7.3,4.9-16.2,10.5-26.6,16.6c-10.4,6.1-20.2,10.7-29.4,13.8
		s-17.7,4.6-25.6,4.6H500h-0.5c-7.8,0-16.4-1.5-25.6-4.6s-19-7.7-29.4-13.8c-10.4-6.1-19.3-11.7-26.6-16.6
		c-7.3-4.9-16.5-11.4-27.6-19.4c-11.1-8-18.3-13.2-21.7-15.6c-31-21.8-75.7-52.9-134-93.4c-58.3-40.4-93.3-64.7-104.9-72.9
		c-21.1-14.3-41.1-34-59.8-59.1C51,277.7,41.7,254.5,41.7,233c0-26.6,7.1-48.8,21.2-66.5c14.1-17.7,34.4-26.6,60.6-26.6h753
		c22.2,0,41.3,8,57.5,24C950.2,180,958.3,199.2,958.3,221.7z M958.3,372.1v406.2c0,22.5-8,41.8-24,57.8c-16,16-35.3,24-57.8,24h-753
		c-22.5,0-41.8-8-57.8-24c-16-16-24-35.3-24-57.8V372.1c15,16.7,32.2,31.5,51.7,44.5c123.4,83.9,208.2,142.7,254.2,176.5
		c19.4,14.3,35.2,25.5,47.3,33.5c12.1,8,28.2,16.2,48.3,24.6c20.1,8.4,38.9,12.5,56.3,12.5h0.5h0.5c17.4,0,36.1-4.2,56.3-12.5
		c20.1-8.4,36.2-16.5,48.3-24.6c12.1-8,27.9-19.2,47.3-33.5c58-41.9,142.9-100.8,254.7-176.5C926.6,403.3,943.7,388.5,958.3,372.1z"
		/>
</g>
</svg>
