<?xml version="1.0" encoding="utf-8"?>
<!-- Generator: Adobe Illustrator 18.1.1, SVG Export Plug-In . SVG Version: 6.00 Build 0)  -->
<svg version="1.1" id="Layer_1" xmlns:sketch="http://www.bohemiancoding.com/sketch/ns"
	 xmlns="http://www.w3.org/2000/svg" xmlns:xlink="http://www.w3.org/1999/xlink" x="0px" y="0px" viewBox="0 0 1000 1000"
	 enable-background="new 0 0 1000 1000" xml:space="preserve">
<title></title>
<desc>Created with Sketch.</desc>
<g enable-background="new    ">
	<path fill="#BBBBBB" d="M983.7,200.5c-27.4,40.1-60.6,74.3-99.4,102.5c0.4,5.7,0.6,14.3,0.6,25.8c0,53.2-7.8,106.3-23.3,159.3
		c-15.6,53-39.2,103.8-70.9,152.5c-31.7,48.7-69.5,91.8-113.2,129.2s-96.6,67.3-158.4,89.6c-61.8,22.3-127.9,33.5-198.3,33.5
		c-110.9,0-212.4-29.7-304.5-89c14.3,1.6,30.3,2.5,47.9,2.5c92.1,0,174.1-28.2,246.1-84.7c-43-0.8-81.4-14-115.4-39.6
		s-57.3-58.2-70-97.9c13.5,2.1,26,3.1,37.5,3.1c17.6,0,35-2.2,52.2-6.8c-45.8-9.4-83.8-32.2-113.9-68.5s-45.1-78.3-45.1-126.1v-2.5
		c27.8,15.6,57.7,24,89.6,25.2c-27-18-48.5-41.5-64.5-70.6s-23.9-60.6-23.9-94.5c0-36,9-69.4,27-100.1
		c49.5,61,109.8,109.8,180.8,146.4s147,57,228,61.1c-3.3-15.5-4.9-30.7-4.9-45.4c0-54.8,19.3-101.6,58-140.3s85.4-58,140.3-58
		c57.3,0,105.6,20.9,144.9,62.6c44.6-8.6,86.5-24.5,125.8-47.9c-15.1,47.1-44.2,83.5-87.2,109.3C907.6,227,945.6,216.8,983.7,200.5z
		"/>
</g>
</svg>
